# xmcd
#
# Track frame offsets: 
#        150
#        12828
#        26463
#        40034
#        53460
#        65133
#        77466
#        88727
#        101865
#        116025
#        128240
#        141392
#        153857
#        168123
#        182035
#        193616
#        207522
#        221495
#        236233
#        249167
#
# Disc length: 3489 seconds
#
# Revision: 7
# Processed by: cddbd v1.5.2PL0 Copyright (c) Steve Scherf et al.
# Submitted via: ExactAudioCopy v0.99pb5
#
DISCID=100d9f14
DTITLE=Django Reinhardt - Djangology - Vol.03
DYEAR=1936
DGENRE=Jazz
TTITLE0=Tea For Two  (Youmans)
TTITLE1=Blues  (Brun)
TTITLE2=Easy Going  (Deloof)
TTITLE3=College Stomp  (Brun)
TTITLE4=Harlem Swing  (Deloof)
TTITLE5=It Had To Be You  (Kahn - Jones)
TTITLE6=Sweet Sue, Just You  (Young  - Harris)
TTITLE7=Honeysuckle Rose  (Waller - Razaf)
TTITLE8=Sweet Georgia Brown  (Bernie - Casey - Pinkard)
TTITLE9=Night And Day  (Porter)
TTITLE10=My Sweet  (Reinhardt - Grappelly)
TTITLE11=Souvenirs  (Reinhardt - Grappelly)
TTITLE12=Daphné  (Reinhardt - Grappelly)
TTITLE13=Black And White  (Reinhardt - Grappelly)
TTITLE14=Stompin' At Decca  (Reinhardt - Grappelly)
TTITLE15=Un Sourire En Chantant  (With A Smile And A Song)  (Churchill
TTITLE15=)
TTITLE16=Sifflez En Traillant  (Whistle While You Work)  (Churchill)
TTITLE17=Bouncin' Around  (Deloof)
TTITLE18=Ridin' Along The Moscowa  (Brun)
TTITLE19=Got A Date In Louisiana  (Pacquay)
EXTD=
EXTT0=
EXTT1=
EXTT2=
EXTT3=
EXTT4=
EXTT5=
EXTT6=
EXTT7=
EXTT8=
EXTT9=
EXTT10=
EXTT11=
EXTT12=
EXTT13=
EXTT14=
EXTT15=
EXTT16=
EXTT17=
EXTT18=
EXTT19=
PLAYORDER=
